<?xml version="1.0" encoding="utf-8"?>
<!-- Generator: Adobe Illustrator 20.1.0, SVG Export Plug-In . SVG Version: 6.00 Build 0)  -->
<!DOCTYPE svg PUBLIC "-//W3C//DTD SVG 1.1//EN" "http://www.w3.org/Graphics/SVG/1.1/DTD/svg11.dtd">
<svg version="1.1" id="Layer_1" xmlns="http://www.w3.org/2000/svg" xmlns:xlink="http://www.w3.org/1999/xlink" x="0px" y="0px"
	 width="137px" height="43px" viewBox="0 0 318.7 100" style="enable-background:new 0 0 318.7 100;" xml:space="preserve">
<style type="text/css">
	.st0{stroke:#000000;stroke-width:0.1783;stroke-miterlimit:3.8637;}
	.st1{fill:#FFFFFF;stroke:#000000;stroke-width:0.1783;stroke-miterlimit:3.8637;}
	.st2{fill-rule:evenodd;clip-rule:evenodd;}
	.st3{fill:none;stroke:#000000;stroke-width:0.1783;stroke-miterlimit:3.8637;}
	.st4{fill-rule:evenodd;clip-rule:evenodd;fill:#ED1C24;}
	.st5{fill:none;stroke:#ED1C24;stroke-width:0.1783;stroke-miterlimit:3.8637;}
</style>
<path class="st0" d="M124.4,8.8c0,0,7.9-0.1,15.4-0.4c3.1-0.1,15.1-0.7,18.1-0.9c3-0.1,11.1-0.8,14.7-1.2c2.9-0.3,4.7-0.4,5.4-0.5
	c0.7-0.1,0.7-0.4,2-0.4c1.3,0,2.1-0.1,3.4-0.3c1.3-0.1,3.4,0,5.6,0.9c2.2,0.9,4.3,1.7,4.3,1.7s1.7,0.2,1.6,3
	c-0.1,2.7,0.1,26.3,0.1,29.1c0,2.8,0.9,16.3,0.4,21c-0.4,4.7-0.3,12.1-0.4,13c-0.1,0.9,0,4.7,0,4.7s-0.3,4.4-0.3,6.3
	s0.6,3.7,0.6,4.3s0.4,2.5-0.1,3.3c-0.5,1-1.6,2.8-1.6,2.8s-1.7,0.4-2.5,0.2c-0.7-0.1-14.4-0.2-21.4,0.4c-2.8,0.2-7.2,0-10.4,0
	c-3.2,0-6.7-0.1-8.7-0.1c-2,0-4.3,0.2-5.4,0.3c-1.8,0.1-2,0.2-4.2,0.2c-2.3,0-7.8-0.4-10-0.3c-2.2,0.1-9.9-0.2-9.9-0.2
	s-3.8-0.3-4.8-0.5c-0.1,0-1.5,0.3-0.8-3.5c0,0,0-6.3,0.1-7.3c0.1-1-0.2-3.6-0.1-4.9c0.1-1.3,0-6.1,0-7c0-0.7-0.1-2.9-0.2-4.1
	c-0.1-0.8-0.3-3-0.3-3.9c0-0.9-0.4-12.8-0.4-12.8s0.2-2.8,0.2-4c0-1.2-0.1-5.1,0.1-6.1c0.1-1,0-2.7,0-3.5c0-0.9,0-1.4,0.2-3.4
	c0.1-2,0.9-13.7,0.9-13.7s0-2.8,0.2-4c0.1-0.7,0.2-2.4,0.3-3.1c0.1-1.1,0.2-1.4,0.9-1.9c0.5-0.4,1.5,0.4,1.7-0.6
	c0.3-1.5,0-2.6,1.4-2.7C121.3,8.8,124.4,8.8,124.4,8.8L124.4,8.8z"/>
<path class="st1" d="M174.3,88.2c-3.9,0.3-6,0-12.3,0.7c-2.3,0.3-3.6-0.1-5.9,0.1c-2.3,0.1-4.1-0.1-7,0.1c-2.8,0.1-4.5-0.1-6.5,0.1
	c-2,0.1-6.5,0.4-8.3,0.4c-1.3,0-2.9-0.1-3.8-0.2c-1.1-0.1-1.6-0.6-1.6-1.5c0-0.9,0.1-7.9,0.1-10.9c0-1.7-0.5-3-0.5-5.9
	c0-2.9-0.3-7-0.4-8.5c-0.1-1,0.1-2.1,0.1-2.1s0-0.6,0-2.8s0.3-11.3,0.3-14.1c0-2.8,0.3-5.7,0.3-8.2c0-2.6,0.4-13.4,0.4-15.4
	c0-2,1-3.9,1-3.9s0.3-0.4,1.4-0.2c0,0,7.2-0.9,9.4-0.9c2.2,0,8.1-0.6,11-0.6c2.9,0,4.1-0.5,6.4-0.5c2.3,0,9.5,0,12.1-0.1
	c3.1-0.1,5.7-0.4,7.6-0.4c1.9,0,2.8-0.5,3.3,0.5c0.2,0.4-0.2,2.4-0.2,3.2c0,0.7,0.4,18.7,0.4,20c0,1.3,0.2,3.1,0.2,5.4
	c0,2.3,0.4,8.8,0,13.6c-0.4,4.1,0.1,12.6,0,21.8c0,1.1,0,5,0,5.7c0,0.7,0,2.9,0,2.9s0.4,0.5-0.9,0.8
	C179.9,87.4,174.3,88.2,174.3,88.2L174.3,88.2z"/>
<path class="st2" d="M36,33.8c-0.5-0.5-2.5-0.1-3.5,0.2c-0.8,0.2-1.9,0.5-3.2,1.4c-1.3,0.9-2.3,1.7-2.9,2.5c-0.9,1-1.8,1.9-2.2,2.6
	c-0.5,0.6-1,1.4-1.3,2.2c-0.3,0.9-0.3,2.3,0.1,2.9c0.3,0.5,1.3,1.4,2,1.7c0.7,0.3,2.2,1.3,4.5-0.4c2.3-1.6,2.8-2.1,3.7-3
	c0.5-0.5,1.1-1.6,1.6-2.6c0.4-1,0.8-1.6,1.3-3c0.3-1,0.5-2.1,0.5-2.7S36.3,34.1,36,33.8L36,33.8z M40.2,24c0.8,0.3,1.2,0.6,1.9,0.9
	c0.7,0.3,1.7,0.4,2.2-0.3c0.3-0.5,1.2-0.6,2.3-0.5c1.4,0.1,2.4,1.5,2.5,2.9c0,1.1-0.1,4.3-0.4,8.2c-0.2,3.7-0.2,4,0,6.9
	c0.2,2.9-0.4,9.4-0.3,11c0,1.5-0.2,2.7-0.2,3.2c0,0.5-0.2,1-0.1,7.3c0.1,6.3,0.5,7.3,0.5,8.7c0,0.8-0.2,1.9-0.5,2.9
	c-0.4,1.1-1.6,1.4-2.3,1.4c-0.7,0-1.7-0.2-2.5-0.2c-0.7,0-1.8-0.2-2.4-0.3c-0.9-0.2-1.9-1-2.9-2c-1-1-0.9-1.8-1-4.1
	c-0.1-2.4-0.1-4.7-0.1-6.2c0-1.4-0.2-2.8-0.4-3.9c-0.2-1.1-0.1-2.5-0.3-3.7c-0.1-1-0.1-1.7-0.3-2.5c-0.2-0.8-1.2-0.1-1.2-0.1
	s-1,0.4-2.4,1.1c-1.7,0.8-3.1,1.4-3.9,1.7c-0.7,0.3-2.5,0.7-3.6,0.6c-1.1-0.1-2.4-0.1-5.2-1.1c-2.8-1-4.5-3.3-6.4-5.5
	c-1.9-2.2-2.3-5.7-2.4-7.5c-0.1-1.8,0.1-1.2,0.1-2s0.2-1.6,1.1-4.3c0.4-1.4,1.6-3.1,2.5-4.2c0.7-0.8,4.2-4.9,10.3-7.4
	c1.4-0.6,5.1-1.5,6.6-1.7c1.5-0.2,2.5-0.2,4.1,0C37.2,23.1,39.4,23.6,40.2,24L40.2,24z"/>
<path class="st3" d="M36,33.8c-0.5-0.5-2.5-0.1-3.5,0.2c-0.8,0.2-1.9,0.5-3.2,1.4c-1.3,0.9-2.3,1.7-2.9,2.5c-0.9,1-1.8,1.9-2.2,2.6
	c-0.5,0.6-1,1.4-1.3,2.2c-0.3,0.9-0.3,2.3,0.1,2.9c0.3,0.5,1.3,1.4,2,1.7c0.7,0.3,2.2,1.3,4.5-0.4c2.3-1.6,2.8-2.1,3.7-3
	c0.5-0.5,1.1-1.6,1.6-2.6c0.4-1,0.8-1.6,1.3-3c0.3-1,0.5-2.1,0.5-2.7S36.3,34.1,36,33.8L36,33.8z M40.2,24c0.8,0.3,1.2,0.6,1.9,0.9
	c0.7,0.3,1.7,0.4,2.2-0.3c0.3-0.5,1.2-0.6,2.3-0.5c1.4,0.1,2.4,1.5,2.5,2.9c0,1.1-0.1,4.3-0.4,8.2c-0.2,3.7-0.2,4,0,6.9
	c0.2,2.9-0.4,9.4-0.3,11c0,1.5-0.2,2.7-0.2,3.2c0,0.5-0.2,1-0.1,7.3c0.1,6.3,0.5,7.3,0.5,8.7c0,0.8-0.2,1.9-0.5,2.9
	c-0.4,1.1-1.6,1.4-2.3,1.4c-0.7,0-1.7-0.2-2.5-0.2c-0.7,0-1.8-0.2-2.4-0.3c-0.9-0.2-1.9-1-2.9-2c-1-1-0.9-1.8-1-4.1
	c-0.1-2.4-0.1-4.7-0.1-6.2c0-1.4-0.2-2.8-0.4-3.9c-0.2-1.1-0.1-2.5-0.3-3.7c-0.1-1-0.1-1.7-0.3-2.5c-0.2-0.8-1.2-0.1-1.2-0.1
	s-1,0.4-2.4,1.1c-1.7,0.8-3.1,1.4-3.9,1.7c-0.7,0.3-2.5,0.7-3.6,0.6c-1.1-0.1-2.4-0.1-5.2-1.1c-2.8-1-4.5-3.3-6.4-5.5
	c-1.9-2.2-2.3-5.7-2.4-7.5c-0.1-1.8,0.1-1.2,0.1-2s0.2-1.6,1.1-4.3c0.4-1.4,1.6-3.1,2.5-4.2c0.7-0.8,4.2-4.9,10.3-7.4
	c1.4-0.6,5.1-1.5,6.6-1.7c1.5-0.2,2.5-0.2,4.1,0C37.2,23.1,39.4,23.6,40.2,24L40.2,24z"/>
<path class="st0" d="M92.8,34c1.4,0.2,2.3,0.4,3.5,0.3c0.8-0.1,1.6-1,2.1-1.5c0.5-0.5,0.9-0.8,1.3-1.9s0.4-1.4,0.6-2.7
	c0.3-1.3,0.1-2.2-0.1-2.9c-0.3-0.7-1.2-1.3-1.8-1.4c-0.6-0.1-2.4-0.3-3.8-0.2c-1.3,0.1-4.2,0.4-5.9,0.2c-1.7-0.2-3-0.4-5.2-0.4
	c-2,0-3.3,0-5-0.1c-1.7-0.1-6.3,0-7.2-0.1c-0.9-0.1-2.5,0-3.4,0c-0.9,0-1.3,0-2.9,0c-1.6,0-2.6,0.1-2.9,0.2
	c-0.4,0.1-0.5,0.1-0.8,0.5c-0.4,0.4-0.5,0.8-0.8,1c-0.3,0.2-0.6,0.5-0.9,1.4c-0.3,0.9-0.2,2.7-0.4,3.3c-0.2,0.6,0,3.1,0,3.8
	c0,0.7,0.4,1.5,0.4,2.8c0.1,1.3,0.2,3,0.2,4.3c0,1.3,0.2,2.8,0.2,3.7c0,2,0,3,0,3.8s0.2,1.3,0.4,2c0.3,0.6,1,1.5,1.7,1.9
	c0.9,0.5,0.9,0.5,1.9,0.8c1.3,0.4,2.6,0.5,2.9,0.5c0.4,0,2.3,0.3,2.9-0.2c0.6-0.4,1.6-1.3,3.1-2c1.5-0.6,3.7-2,7.4-1.7
	c3.2,0.3,6.6,1.4,7.2,3.7c0.8,3.1,1.2,6.1,0.4,8.5c-0.7,2.4-2.3,4.5-3.7,5.3c-1.4,0.7-4.6,1.2-6.2,0.8c-1.5-0.4-3-1-4.1-1.6
	c-1.1-0.6-2.9-2.4-3.6-2.9C70,62.8,69.5,62,67.9,62c-1.6,0-2.1,0.3-3.3,0.5c-1.2,0.3-3,0.8-4.1,1.7c-1.1,0.9-1.8,2.4-1.6,2.9
	c0.2,0.5,0.3,0.8,0.6,1.2c0.4,0.4,1.6,1.9,2.3,2.7c0.7,0.8,2,1.6,4,2.8c1.7,1.1,4,2.1,6.3,2.8c2.4,0.7,3,0.8,3.8,1
	c0.8,0.2,1.6,0.4,2.2,0.5c1,0.2,3.3,0.2,3.9,0.1c0.5-0.1,1.1-0.2,2.8-0.3c1.7-0.1,4.1-0.3,6.3-1.8c3.3-2.2,5.4-5.4,6.1-6.7
	c0.7-1.2,1-2.4,1.2-3.2c0.3-0.8,1.5-6.3,1.7-9.1c0.2-3.7,0-5.7-0.2-7c-0.2-1.1-0.3-1.5-0.6-2.5c-0.2-0.8-0.9-3-3.1-4.2
	c-2.6-1.5-3.2-1.8-5.9-2.4c-0.7-0.2-1.7-0.5-3.4-0.7c-1.7-0.3-4.3-0.5-6.5-0.2c-2.1,0.3-2.7,0.5-3.6,0.6c-1.2,0.1-2,0.4-2.5,0.4
	c-0.5,0.1-1.5,0.1-1.9,0c-0.4-0.2-0.7-0.3-0.8-0.9c-0.3-1.1-0.3-0.8-0.4-2.2c0-1-0.4-1.5-0.1-2.6c0.3-1.1,0.2-1.2,1.1-1.3
	c1-0.1,0.1,0,1.8-0.2c1.4-0.2,4.6-0.3,6.3-0.3c1.7,0,4.6,0.2,6.5,0.3C89.2,33.9,91.9,33.8,92.8,34L92.8,34z"/>
<path class="st0" d="M211.4,28c0,0-0.1-0.8,0.6-1.4c0.7-0.6,1.2-1,1.2-1s0.1-0.1,1.3-0.6c1.2-0.5,0.7-0.7,2.4-1.3
	c1.8-0.7,2.5-0.6,3.7-0.7c1.2-0.1,1.5-0.1,2.4-0.2c0.9-0.1,1.4,0.1,2.7,0c1.5-0.1,2.5-0.2,4.5-0.2c2.5,0.1,1.5,0.2,3.9,0.1
	c2.4-0.1,7.3-0.3,9.7-0.2c2.3,0.1,3.2,0.1,4.3,0.5c2,0.7,2.5,2,2.1,4.3c-0.2,1.2-0.9,1.9-1,2.5c-0.1,0.6-0.2,1.3-0.3,2.1
	c-0.1,0.8-0.4,2.8-1.6,2.9c-1.2,0.1-3.9-0.1-6.2-0.8c-2.3-0.6-5-0.6-7.1-0.6c-2.1,0-4.6,0-6.3,0.2c-1.7,0.2-3.2,0.4-3.9,0.6
	c-0.7,0.2-1.2,0.4-1.3,1.9c-0.1,1.6-0.2,5.6-0.2,6.3c0,0.8-0.1,2.1-0.2,2.6c-0.1,0.6,0.3,1.2,1.3,1.2c1.2,0,2.3,0,4,0.1
	c1.7,0.1,2.4,0.1,3.4,0c0.8-0.1,1.2-0.4,5.8-0.4c1.6,0,2.7-0.4,4.7-0.3c0.7,0,2,0.3,2.1,1.6c0.1,1.3,0.3,3.2,0.4,4.5
	c0.1,1.3-0.3,3.1-1.2,3.6c-0.9,0.5-2.9,1-5.3,1.2c-2.4,0.2-7.9,0.3-9.3,0.3s-3.2,0.2-4.2,0.2c-0.9,0-1.3,0.2-1.2,1.4
	c0.1,1.3,0.2,3.1,0.3,5.6c0.1,2.5,0.1,7.3,0.1,8.7c0,1.4,0.5,1.9,0.5,2.3c0.1,0.5-0.2,1.4-0.8,2c-0.6,0.6-2.2,0.6-3.3,0.7
	c-1.1,0.1-2.2-0.5-2.7-0.5c-0.5,0-2.9-0.1-3.4-0.7c-0.7-0.7-1.3-1.2-1.6-2.4c-0.2-0.9,0-3.1,0-4.3c0.1-1.9-0.5-5-0.5-6.7
	c0-1.7-0.2-4.7-0.2-6.6c0-1.9,0-8.2,0.1-10.7c0.1-2.5,0.6-8.4,0.6-11.1C211.5,32.2,211.4,28,211.4,28L211.4,28z"/>
<path class="st0" d="M279.9,40.4c0.3,0.3,0.7,0.8,1,1.1c0.3,0.3,0.9,1.4,1.9-0.6c1.3-2.6,3.5-7.6,4.2-9.2c0.4-1,1.6-3.3,2.7-4.9
	c0.4-0.6,1.1-1.9,1.6-2.5c0.5-0.8,1.6-1.2,2.2-1.5c0.6-0.3,2.7-0.6,2.7-0.6s1.2-0.8,2.7-1c1.5-0.2,3.4,0,4.3,0.6
	c1.4,0.9,1.1,2.5,1.3,5.8c0.2,3.4,0.3,4.3,0.2,5.7c0,1.1-0.1,1.7-0.1,4.2c0,2.5,0.2,6.2,0.2,8.5c0,2.2-0.1,6.7-0.1,8.8
	c0,2.2-0.1,3.4,0.1,6.3c0.2,2.9,0.6,4.3,0.6,5.7c0,1.4,0,1.8,0,2.4c0,0.6-0.2,1.2-0.2,2.7c-0.1,2.4,0,3.1-0.5,4.1
	c-0.5,1-0.4,1.4-2.1,2.1c-0.7,0.3-2.1,0-2.9-0.3c-0.8-0.3-2.7-0.9-3.5-1c-0.9-0.1-1.7-0.4-2.3-1c-0.6-0.7-1.2-1.2-0.8-2.4
	c0.3-0.7,0.6-2.9,0.4-5.2c-0.1-1.1-0.3-5.8-0.4-8.1c-0.1-2.2-0.2-7.7-0.2-8.8c0-1.1-0.1-3.9-0.1-4.4c0-0.4-0.6-0.3-1,0.4
	c-1,1.6-2.9,4.4-3.7,5.7c-0.8,1.2-2,4.2-2.6,4.9c-0.6,0.7-2.6,0.5-3.8,0.4c-1.2-0.1-3.7-0.8-4.7-1.5c-1.8-1.2-2.3-2.5-3.6-4.5
	c-1.3-2-3.2-4.2-3.8-5.1c-0.5-0.7-0.7-0.7-0.9-0.1c-0.2,1-0.4,7.9-0.4,10.1c-0.1,2.3-0.2,5.3-0.3,7.7c-0.1,2-0.3,5.2-0.3,5.2
	s-0.1,1.7-0.2,2.7c-0.1,1-0.2,2.4-0.7,3c-0.8,1-1.2,1.5-3.2,1c-2-0.6-3.7-0.7-5.1-1.5c-1.4-0.9-1.8-1.9-1.8-2.6c0-0.7,0-2.7,0-5.5
	c0-2.8,0.1-6.6,0.1-8.4c0-1.9,0.2-6.6,0.3-8.6c0.1-2.2,0-7.4,0-8.3c0-1,0.1-4.1,0.1-5.1c0-1-0.7-4.6-0.7-6.2c0-1.8,1.6-3.2,4.1-4.1
	c2.7-0.9,3-1.3,5.2-1.5c2.5-0.3,4.6-0.3,5.4,1.4c0.8,1.8,2.2,4.4,3.1,5.7c0.9,1.3,2.3,3.1,3.4,4.7C278.6,38.5,279.6,40,279.9,40.4
	L279.9,40.4z"/>
<path class="st4" d="M149.7,64.7c-0.1,0.2-0.2,10.1,0,10.8c0.2,0.9-0.2,1.6,1.9,1.4c1.5-0.2,2-0.5,3.8-0.8c1.4-0.2,3.2-0.7,4.6-1.5
	c1.4-0.7,4.7-2.5,4.3-5.9c-0.5-4.3-3.4-5.8-6.5-6.2C154.6,62.1,150.7,63.3,149.7,64.7L149.7,64.7z M136.6,18.7
	c0.7-0.1,6.2,0.2,7,0.3c0.9,0.1,2.2,0.2,2.7,0.7c0.6,0.5,1.2,0.8,1.2,2.5c0,1.7,0.9,7.6,0.9,10.5c0,3.3,0.3,6.2,0.3,7.7
	c0,2.3,0.1,3.6,0.2,4.8c0.1,1.2,0.4,3.2,0.4,3.9c0,0.7,0.3,2.9,0.2,4.1c0,0.7-0.1,1.8,1.6,1.8c1.7,0,4.6,0,8,0.9
	c4.6,1.3,5.3,1.6,8.6,2.9c1.9,0.8,5.8,2.8,6.9,4.5c1.2,1.7,2.2,4.5,0.8,9.1c-1.4,4.6-9.3,7.4-10.5,8.1c-1.1,0.7-10,3.2-11.4,3.3
	c-0.8,0.1-1.9,0.6-3.3,0.7c-1.5,0.1-3.6,0.3-5.8-0.2c-1.2-0.3-2.5-1.3-2.5-1.3s-0.7-0.4-1.2-0.4c-0.6,0-1.3,0.5-1.9,0.1
	c-0.6-0.4-1.4-1-1.6-1.5c-0.5-1.9-0.5-12.6-0.6-15.6c0-0.8,0.1-3.9,0.1-6.6s-0.5-15.4-0.8-18.7c-0.2-3.3-0.2-8-0.6-11.3
	c-0.2-2.1-0.5-5.1-0.5-6c0-0.9,0.2-3.6,0.2-3.6S135.9,18.8,136.6,18.7L136.6,18.7z"/>
<path class="st5" d="M149.7,64.7c-0.1,0.2-0.2,10.1,0,10.8c0.2,0.9-0.2,1.6,1.9,1.4c1.5-0.2,2-0.5,3.8-0.8c1.4-0.2,3.2-0.7,4.6-1.5
	c1.4-0.7,4.7-2.5,4.3-5.9c-0.5-4.3-3.4-5.8-6.5-6.2C154.6,62.1,150.7,63.3,149.7,64.7L149.7,64.7z M136.6,18.7
	c0.7-0.1,6.2,0.2,7,0.3c0.9,0.1,2.2,0.2,2.7,0.7c0.6,0.5,1.2,0.8,1.2,2.5c0,1.7,0.9,7.6,0.9,10.5c0,3.3,0.3,6.2,0.3,7.7
	c0,2.3,0.1,3.6,0.2,4.8c0.1,1.2,0.4,3.2,0.4,3.9c0,0.7,0.3,2.9,0.2,4.1c0,0.7-0.1,1.8,1.6,1.8c1.7,0,4.6,0,8,0.9
	c4.6,1.3,5.3,1.6,8.6,2.9c1.9,0.8,5.8,2.8,6.9,4.5c1.2,1.7,2.2,4.5,0.8,9.1c-1.4,4.6-9.3,7.4-10.5,8.1c-1.1,0.7-10,3.2-11.4,3.3
	c-0.8,0.1-1.9,0.6-3.3,0.7c-1.5,0.1-3.6,0.3-5.8-0.2c-1.2-0.3-2.5-1.3-2.5-1.3s-0.7-0.4-1.2-0.4c-0.6,0-1.3,0.5-1.9,0.1
	c-0.6-0.4-1.4-1-1.6-1.5c-0.5-1.9-0.5-12.6-0.6-15.6c0-0.8,0.1-3.9,0.1-6.6s-0.5-15.4-0.8-18.7c-0.2-3.3-0.2-8-0.6-11.3
	c-0.2-2.1-0.5-5.1-0.5-6c0-0.9,0.2-3.6,0.2-3.6S135.9,18.8,136.6,18.7L136.6,18.7z"/>
</svg>
