<?xml version="1.0" encoding="utf-8"?>
<!-- Generator: Adobe Illustrator 21.0.0, SVG Export Plug-In . SVG Version: 6.00 Build 0)  -->
<svg version="1.1" id="Layer_1" xmlns="http://www.w3.org/2000/svg" xmlns:xlink="http://www.w3.org/1999/xlink" x="0px" y="0px"
	 viewBox="0 0 147.2 212.9" style="enable-background:new 0 0 147.2 212.9;" xml:space="preserve">
<style type="text/css">
	.st1{fill-rule:evenodd;clip-rule:evenodd;fill:#EC1C24;}
	.st2{fill:none;stroke:#EC1C24;stroke-width:0.2885;stroke-miterlimit:3.8637;}
</style>
<path class="st1" d="M64.2,104.1c-0.2,0.3-0.3,16.3,0,17.5c0.3,1.4-0.3,2.7,3,2.3c2.5-0.2,3.2-0.9,6.2-1.3c2.3-0.3,5.1-1.2,7.4-2.4
	c2.3-1.2,7.7-4,7-9.6c-0.8-6.9-5.5-9.3-10.5-10.1C72.2,99.9,65.8,102,64.2,104.1L64.2,104.1z M43.1,29.7c1.2-0.2,10,0.3,11.4,0.5
	c1.4,0.2,3.5,0.3,4.4,1.2c0.9,0.9,2,1.3,2,4.1s1.5,12.3,1.4,17c-0.1,5.4,0.6,10.1,0.6,12.4c0,3.7,0.1,5.9,0.4,7.7
	c0.2,1.9,0.6,5.1,0.6,6.3c0,1.2,0.4,4.7,0.3,6.6c-0.1,1.2-0.2,2.9,2.6,2.9s7.4,0,13,1.5c7.5,2,8.6,2.6,13.9,4.7
	c3,1.2,9.4,4.6,11.2,7.3c1.9,2.8,3.6,7.3,1.3,14.7c-2.3,7.4-15.1,12-16.9,13.2c-1.8,1.2-16.2,5.1-18.5,5.3c-1.3,0.1-3.1,1-5.4,1.1
	c-2.4,0.2-5.7,0.6-9.4-0.3c-1.9-0.4-4.1-2-4.1-2s-1.1-0.7-2-0.7c-0.9,0-2.1,0.9-3,0.2c-0.9-0.6-2.3-1.6-2.6-2.5
	c-0.8-3-0.9-20.3-1-25.3c0-1.3,0.1-6.3,0.1-10.7c0-4.4-0.8-24.9-1.2-30.2c-0.4-5.4-0.4-12.9-0.9-18.3c-0.4-3.5-0.8-8.3-0.8-9.7
	c0-1.4,0.3-5.7,0.3-5.7S41.9,29.9,43.1,29.7L43.1,29.7z"/>
<path class="st2" d="M64.2,104.1c-0.2,0.3-0.3,16.3,0,17.5c0.3,1.4-0.3,2.7,3,2.3c2.5-0.2,3.2-0.9,6.2-1.3c2.3-0.3,5.1-1.2,7.4-2.4
	c2.3-1.2,7.7-4,7-9.6c-0.8-6.9-5.5-9.3-10.5-10.1C72.2,99.9,65.8,102,64.2,104.1L64.2,104.1z M43.1,29.7c1.2-0.2,10,0.3,11.4,0.5
	c1.4,0.2,3.5,0.3,4.4,1.2c0.9,0.9,2,1.3,2,4.1s1.5,12.3,1.4,17c-0.1,5.4,0.6,10.1,0.6,12.4c0,3.7,0.1,5.9,0.4,7.7
	c0.2,1.9,0.6,5.1,0.6,6.3c0,1.2,0.4,4.7,0.3,6.6c-0.1,1.2-0.2,2.9,2.6,2.9s7.4,0,13,1.5c7.5,2,8.6,2.6,13.9,4.7
	c3,1.2,9.4,4.6,11.2,7.3c1.9,2.8,3.6,7.3,1.3,14.7c-2.3,7.4-15.1,12-16.9,13.2c-1.8,1.2-16.2,5.1-18.5,5.3c-1.3,0.1-3.1,1-5.4,1.1
	c-2.4,0.2-5.7,0.6-9.4-0.3c-1.9-0.4-4.1-2-4.1-2s-1.1-0.7-2-0.7c-0.9,0-2.1,0.9-3,0.2c-0.9-0.6-2.3-1.6-2.6-2.5
	c-0.8-3-0.9-20.3-1-25.3c0-1.3,0.1-6.3,0.1-10.7c0-4.4-0.8-24.9-1.2-30.2c-0.4-5.4-0.4-12.9-0.9-18.3c-0.4-3.5-0.8-8.3-0.8-9.7
	c0-1.4,0.3-5.7,0.3-5.7S41.9,29.9,43.1,29.7L43.1,29.7z"/>
</svg>
